<?xml version="1.0" encoding="UTF-8"?>
<!-- Created with Inkscape (http://www.inkscape.org/) -->
<svg width="100" height="100" version="1.1" viewBox="0 0 26.458 26.458" xml:space="preserve" xmlns="http://www.w3.org/2000/svg"><path d="m11.857 26.283c-5.1863-0.58694-9.4543-4.0236-11.096-8.935-0.46734-1.3978-0.62785-2.4535-0.62785-4.1297 0-1.6762 0.16051-2.7319 0.62785-4.1297 1.3208-3.9503 4.384-7.0136 8.3343-8.3343 1.3978-0.46734 2.4535-0.62785 4.1297-0.62785 1.6762 0 2.7319 0.16051 4.1297 0.62785 4.5681 1.5273 7.9442 5.418 8.7974 10.138 0.23313 1.2898 0.23313 3.3621 0 4.6518-0.47201 2.6114-1.7633 5.0771-3.6437 6.9574-1.8867 1.8867-4.3903 3.1949-6.9574 3.6353-1.0615 0.18213-2.7756 0.24989-3.6935 0.14601zm2.4817-1.6067c3.6715-0.36665 6.9837-2.5152 8.8855-5.7638 1.1139-1.9027 1.6774-4.4575 1.4699-6.6642-0.35593-3.7856-2.4738-7.0969-5.7753-9.0297-1.9027-1.1139-4.4575-1.6774-6.6642-1.4699-2.6978 0.25365-5.059 1.3349-7.0078 3.2092-2.4978 2.4022-3.8082 5.866-3.4918 9.2304 0.4631 4.9255 3.8901 8.9543 8.6638 10.185 1.3762 0.35485 2.517 0.443 3.9199 0.3029zm-3.1168-9.5628c-0.46818-0.61488-0.55782-0.88879-0.55776-1.7041 5.3e-5 -0.68828 0.02123-0.80452 0.2128-1.1682 0.28236-0.53605 0.69872-0.94004 1.2435-1.2066 0.38591-0.18881 0.53581-0.21847 1.1041-0.21847 0.56833 0 0.71824 0.02966 1.1041 0.21847 0.54479 0.26654 0.96115 0.67054 1.2435 1.2066 0.19158 0.3637 0.21275 0.47993 0.2128 1.1682 5.1e-5 0.65963-0.02501 0.81145-0.18294 1.1083-0.2559 0.48096-0.55589 0.85917-0.62422 0.78697-0.03167-0.03347-0.3235-0.68995-0.64852-1.4588-0.60229-1.4248-0.73604-1.6211-1.1048-1.6211s-0.50248 0.19627-1.1048 1.6211c-0.32502 0.7689-0.61685 1.4254-0.64852 1.4588-0.03167 0.03347-0.1439-0.05252-0.2494-0.19108zm1.2711-0.95894c0.29059-0.79182 0.62847-1.4713 0.7316-1.4713 0.10313 0 0.44101 0.67952 0.7316 1.4713 0.04472 0.12186-0.02035 0.13376-0.7316 0.13376-0.71126 0-0.77632-0.01189-0.7316-0.13376z" stroke-width=".076433"/></svg>
