<?xml version="1.0" encoding="UTF-8"?>
<svg width="100" height="100" version="1.1" viewBox="0 0 100 100"
     xmlns="http://www.w3.org/2000/svg">
  <path
    d="m85.021 14.979c-9.3638-9.3225-21.78-14.479-35.021-14.479s-25.658 5.1562-35.021 14.479c-9.3225 9.3638-14.479 21.78-14.479 35.021s5.1562 25.658 14.479 35.021 21.78 14.479 35.021 14.479 25.658-5.1562 35.021-14.479 14.479-21.78 14.479-35.021-5.1562-25.658-14.479-35.021zm-49.252 49.211 11.179-26.318c0.7425-1.7325 2.2275-2.0212 3.0525-2.0212s2.31 0.2475 3.0525 2.0212l11.179 26.318zm43.642 14.726-18.769-44.302c-1.98-4.7025-6.3112-7.0538-10.642-7.0538s-8.6212 2.3512-10.642 7.0538l-18.81 44.261c-7.3012-7.425-11.839-17.655-11.839-28.916 0-22.77 18.48-41.25 41.25-41.25s41.25 18.48 41.25 41.25c0.0412 11.302-4.455 21.491-11.798 28.958z"
    stroke-width=".4125"/>
</svg>
