<?xml version="1.0" encoding="UTF-8"?>
<!-- Created with Inkscape (http://www.inkscape.org/) -->
<svg width="100" height="100" version="1.1" viewBox="0 0 26.458 26.458" xml:space="preserve" xmlns="http://www.w3.org/2000/svg"><g transform="matrix(.5236 0 0 .5236 43.65 6.3364)"><path d="m-62.874-0.61682c-9.5452 2e-3 -9.0812 0.0379-10.676 0.49273-4.8131 1.3725-8.4946 5.4913-9.3733 10.487-0.29489 1.6765-0.23816 4.5388 0.12254 6.1915 1.2028 5.5109 5.9049 9.718 11.523 10.31v-5.1e-4c0.50435 0.0534 6.8179 0.0807 13.135 0.0812h0.0879c6.3168-4.5e-4 12.63-0.0277 13.135-0.0812v5.1e-4c5.6177-0.59219 10.32-4.7993 11.523-10.31 0.3607-1.6527 0.41743-4.515 0.12254-6.1915-0.87872-4.9957-4.5602-9.1145-9.3733-10.487-1.595-0.45484-1.131-0.49073-10.676-0.49273h-5.1e-4c-1.3611-2.6e-4 -2.9267 5.1e-4 -4.7298 5.1e-4h-0.0883c-1.8031 0-3.3688-7.7e-4 -4.7298-5.1e-4zm0.0491 1.7207c1.3463-2.3e-4 2.8998 5.1e-4 4.6812 5.2e-4h0.0879c14.384-9e-5 13.475-0.0338 15.285 0.57184 1.798 0.6016 3.1688 1.4549 4.5385 2.8246 1.7276 1.7276 2.8074 3.7731 3.2465 6.1491 0.20241 1.0953 0.20241 3.9024 0 4.9976-0.61881 3.3484-2.6661 6.2809-5.5726 7.9809-1.3079 0.76502-3.0285 1.3476-4.4656 1.5123-0.40616 0.0466-6.7323 0.0734-13.032 0.0776-0.0298-2e-5 -0.0581 2e-5 -0.0879 0-6.2996-4e-3 -12.626-0.031-13.032-0.0776-1.4371-0.16477-3.1577-0.7473-4.4656-1.5123-2.9065-1.7001-4.9538-4.6325-5.5726-7.9809-0.20241-1.0953-0.20241-3.9024 0-4.9976 0.4391-2.376 1.5188-4.4214 3.2465-6.1491 1.3697-1.3697 2.7405-2.223 4.5385-2.8246 1.5859-0.53066 1.0797-0.57069 10.604-0.57236zm2.0004 3.7769c-0.16075 2e-3 -0.32253 0.0388-0.4674 0.11633-0.62055 0.33209-0.58428 1.3471 0.0595 1.6643 0.335 0.16508 0.48652 0.16886 0.84121 0.0207 0.47517-0.19853 0.67708-0.84635 0.41931-1.3448-0.15074-0.29147-0.49894-0.46019-0.85258-0.45654zm5.449 0c-0.35364-4e-3 -0.70184 0.16507-0.85258 0.45654-0.25777 0.49845-0.0553 1.1463 0.41983 1.3448 0.35469 0.14818 0.50569 0.1444 0.84069-0.0207 0.64374-0.31724 0.68053-1.3322 0.06-1.6643-0.14487-0.0775-0.30665-0.11433-0.4674-0.11633zm-2.7682 3.0241c-6.5033-3.4e-4 -6.3504-4e-3 -7.4479 0.51238-1.1919 0.56175-2.3065 1.9467-2.6177 3.2527-0.13626 0.57197-0.11701 1.8768 0.0362 2.4544 0.44484 1.677 1.9195 3.1323 3.5825 3.535 0.3247 0.0786 1.8858 0.10496 6.4469 0.11065v5.2e-4c0.0174-2e-5 0.0266 2e-5 0.0439 0 0.0173 2e-5 0.0266-2e-5 0.0439 0v-5.2e-4c4.5611-6e-3 6.1222-0.032 6.4469-0.11065 1.663-0.40268 3.1377-1.8579 3.5825-3.535 0.15321-0.57753 0.17245-1.8824 0.0362-2.4544-0.31125-1.306-1.4258-2.6909-2.6177-3.2527-1.0975-0.51676-0.94454-0.51272-7.4479-0.51238-0.033 0-0.0545-1e-5 -0.0879 0zm0 1.6824c0.0299-1e-5 0.058 1e-5 0.0879 0 2.6684-5.4e-4 5.27 0.0233 5.6238 0.0745 1.0941 0.15825 2.0219 0.82479 2.5004 1.7967 0.24846 0.50469 0.26576 0.59517 0.26576 1.4017 0 0.78802-0.0208 0.90412-0.24094 1.3526-0.40299 0.82076-1.1326 1.4362-2.0531 1.731-0.24821 0.0793-1.647 0.0991-6.0958 0.0889-0.0347-8e-5 -0.0529 8e-5 -0.0879 0-4.4488 0.0101-5.8476-0.01-6.0958-0.0889-0.92049-0.29478-1.6502-0.91027-2.0531-1.731-0.22015-0.44844-0.24094-0.56454-0.24094-1.3526 0-0.80651 0.0173-0.89699 0.26575-1.4017 0.47846-0.9719 1.4062-1.6384 2.5004-1.7967 0.3538-0.0511 2.9553-0.075 5.6238-0.0745zm0 9.515v2e-3c-0.51988 0.0219-0.68365 0.066-1.0201 0.27403-0.60731 0.37548-0.88949 0.88744-0.92549 1.6788-0.0293 0.6442 0.11015 1.0954 0.46223 1.4958v5.2e-4c0.0703 0.0799 0.15468 0.11659 0.18768 0.0817 0.033-0.0349 0.2587-0.53992 0.50152-1.1225 0.37295-0.89473 0.59793-1.2715 0.83811-1.3303 0.24019 0.0588 0.46517 0.4356 0.83811 1.3303 0.24282 0.58256 0.46853 1.0876 0.50153 1.1225s0.11738-2e-3 0.18768-0.0817v-5.2e-4c0.35208-0.40033 0.49153-0.85158 0.46223-1.4958-0.036-0.79137-0.31818-1.3033-0.92549-1.6788-0.33647-0.20803-0.50024-0.25209-1.0201-0.27403v-2e-3c-0.016 5.1e-4 -0.0303 8.8e-4 -0.0439 1e-3 -0.0136-1.5e-4 -0.028-5.2e-4 -0.0439-1e-3zm0.01 1.4792c-3e-3 -4.9e-4 -7e-3 2.7e-4 -0.01 5.2e-4v0.0941c-0.0754 0.11639-0.18314 0.32754-0.28437 0.56822l-0.26524 0.63026h1.1871l-0.26524-0.63026c-0.10123-0.24068-0.20894-0.45183-0.28437-0.56822v-0.0941c-3e-3 -2.5e-4 -7e-3 -1e-3 -0.01-5.2e-4 -9e-3 3e-3 -0.0205 0.0148-0.0341 0.031-0.0136-0.0162-0.0256-0.0282-0.0341-0.031z" stroke-width=".081936"/></g></svg>
