<?xml version="1.0" encoding="UTF-8"?>
<svg width="100" height="100" fill="none" version="1.1" viewBox="0 0 100 100" xmlns="http://www.w3.org/2000/svg">
 <path d="m44.844 14.984c-15.049 0-27.281 12.232-27.281 27.281 0 1.3977 0.21675 2.738 0.42188 4.0801-9.032 1.7248-15.891 9.6015-15.891 19.121 0 10.778 8.7692 19.547 19.547 19.547h48.984c15.049 0 27.281-12.231 27.281-27.279 0-15.049-12.232-27.281-27.281-27.281a1.5002 1.5002 0 0 0-2e-3 0l-1.2422 2e-3c-4.41-9.1405-13.724-15.471-24.537-15.471zm0 3c9.971 0 18.516 5.9967 22.262 14.57a1.5002 1.5002 0 0 0 1.377 0.90039l2.1426-2e-3c13.428 0 24.281 10.854 24.281 24.281 0 13.427-10.854 24.279-24.281 24.279h-48.984c-9.1563 0-16.547-7.3903-16.547-16.547 0-8.5247 6.4172-15.515 14.68-16.441a1.5002 1.5002 0 0 0 1.3008-1.8008c-0.33635-1.5941-0.51172-3.2538-0.51172-4.9589 0-13.428 10.854-24.281 24.281-24.281z" clip-rule="evenodd" color="#000000" fill="#000" fill-rule="evenodd" stroke-linecap="round" stroke-linejoin="round" style="-inkscape-stroke:none"/>
</svg>
