<?xml version="1.0" encoding="UTF-8"?>
<svg width="100" height="100" version="1.1" viewBox="0 0 100 100" xmlns="http://www.w3.org/2000/svg">
 <path d="m50.002 0.50195c-2.4688 1e-8 -4.938 0.93017-6.8008 2.793l-23.375 23.377c-16.636 16.636-16.636 43.718 0 60.354 16.636 16.636 43.718 16.636 60.354 0 16.636-16.636 16.636-43.718 0-60.354l-23.377-23.377c-1.8628-1.8628-4.332-2.793-6.8008-2.793zm0 7.168c0.60783 0 1.2167 0.24205 1.7012 0.72656l23.375 23.375c13.879 13.879 13.879 36.275 0 50.154-13.879 13.879-36.273 13.879-50.152 0-13.879-13.879-13.879-36.275 0-50.154l23.377-23.375c0.48451-0.48451 1.0914-0.72656 1.6992-0.72656z" clip-rule="evenodd" color="#000000" fill-rule="evenodd" stroke-linecap="round" stroke-linejoin="round" style="-inkscape-stroke:none"/>
 <path d="m31.969 53.24a3.6065 3.6065 0 0 0-3.6074 3.6074c0 11.908 9.7327 21.639 21.641 21.639a3.6065 3.6065 0 0 0 3.6055-3.6074 3.6065 3.6065 0 0 0-3.6055-3.6055c-8.0097 0-14.426-6.416-14.426-14.426a3.6065 3.6065 0 0 0-3.6074-3.6074z" color="#000000" stroke-linecap="round" stroke-linejoin="round" style="-inkscape-stroke:none"/>
</svg>
