<?xml version="1.0" encoding="UTF-8"?>
<svg width="100" height="100" fill="none" version="1.1" viewBox="0 0 100 100" xmlns="http://www.w3.org/2000/svg">
 <g fill="#000">
  <g stroke-linecap="round">
   <path d="m49.258 0.5a2.97 2.97 0 0 0-2.9707 2.9707v8.9102a2.97 2.97 0 0 0 2.9707 2.9688 2.97 2.97 0 0 0 2.9688-2.9688v-8.9102a2.97 2.97 0 0 0-2.9688-2.9707z" color="#000000" style="-inkscape-stroke:none"/>
   <path d="m49.258 84.65a2.97 2.97 0 0 0-2.9707 2.9688v8.9102a2.97 2.97 0 0 0 2.9707 2.9707 2.97 2.97 0 0 0 2.9688-2.9707v-8.9102a2.97 2.97 0 0 0-2.9688-2.9688z" color="#000000" style="-inkscape-stroke:none"/>
   <path d="m87.619 46.365a2.97 2.97 0 0 0-2.9688 2.9688 2.97 2.97 0 0 0 2.9688 2.9707h8.9102a2.97 2.97 0 0 0 2.9707-2.9707 2.97 2.97 0 0 0-2.9707-2.9688z" color="#000000" style="-inkscape-stroke:none"/>
   <path d="m3.4707 46.365a2.97 2.97 0 0 0-2.9707 2.9688 2.97 2.97 0 0 0 2.9707 2.9707h8.9102a2.97 2.97 0 0 0 2.9688-2.9707 2.97 2.97 0 0 0-2.9688-2.9688z" color="#000000" style="-inkscape-stroke:none"/>
   <path d="m80.277 14.473-6.3008 6.3008a2.97 2.97 0 0 0 0 4.2012 2.97 2.97 0 0 0 4.1992 0l6.3008-6.3008a2.97 2.97 0 0 0 0-4.2012 2.97 2.97 0 0 0-4.1992 0z" color="#000000" style="-inkscape-stroke:none"/>
   <path d="m20.773 73.977-6.3008 6.3008a2.97 2.97 0 0 0 0 4.1992 2.97 2.97 0 0 0 4.2012 0l6.3008-6.3008a2.97 2.97 0 0 0 0-4.1992 2.97 2.97 0 0 0-4.2012 0z" color="#000000" style="-inkscape-stroke:none"/>
   <path d="m74.973 74.029a2.97 2.97 0 0 0 0 4.2012l6.2969 6.2988a2.97 2.97 0 0 0 4.2012 2e-3 2.97 2.97 0 0 0 0-4.2012l-6.2969-6.2989a2.97 2.97 0 0 0-4.2012-2e-3z" color="#000000" style="-inkscape-stroke:none"/>
   <path d="m19.668 14.527a2.97 2.97 0 0 0-4.2012 2e-3 2.97 2.97 0 0 0 2e-3 4.2012l6.3008 6.2969a2.97 2.97 0 0 0 4.2012 0 2.97 2.97 0 0 0-2e-3 -4.2012z" color="#000000" style="-inkscape-stroke:none"/>
  </g>
  <path d="m50 35.15c-8.1662 0-14.85 6.6834-14.85 14.85s6.6834 14.85 14.85 14.85 14.85-6.6834 14.85-14.85-6.6834-14.85-14.85-14.85zm0 5.9395c4.956 0 8.9102 3.9541 8.9102 8.9102s-3.9541 8.9102-8.9102 8.9102-8.9102-3.9541-8.9102-8.9102 3.9541-8.9102 8.9102-8.9102z" color="#000000" style="-inkscape-stroke:none"/>
 </g>
</svg>
