<?xml version="1.0" encoding="UTF-8"?>
<svg width="100" height="100" version="1.1" viewBox="0 0 100 100" xmlns="http://www.w3.org/2000/svg">
 <path d="m50 10.812c-21.606 0-39.188 17.581-39.188 39.188s17.581 39.188 39.188 39.188 39.188-17.581 39.188-39.188-17.581-39.188-39.188-39.188zm0 6.1875c18.262 0 33 14.738 33 33 0 18.262-14.738 33-33 33s-33-14.738-33-33c0-18.262 14.738-33 33-33z" color="#000000" stroke-linecap="round" stroke-linejoin="round" style="-inkscape-stroke:none"/>
 <g stroke-linecap="round" stroke-linejoin="round">
  <path d="m39.688 34.532c0-1.424-1.1542-2.5781-2.5781-2.5781s-2.5781 1.1542-2.5781 2.5781 1.1542 2.5781 2.5781 2.5781 2.5781-1.1542 2.5781-2.5781z" color="#000000" stroke-width="6.1875" style="-inkscape-stroke:none"/>
  <path d="m37.109 28.859c-3.0957 0-5.6719 2.5762-5.6719 5.6719s2.5762 5.6719 5.6719 5.6719 5.6719-2.5762 5.6719-5.6719-2.5762-5.6719-5.6719-5.6719zm0 5.1562c0.2478 0 0.51562 0.26783 0.51562 0.51562s-0.26783 0.51562-0.51562 0.51562-0.51562-0.26783-0.51562-0.51562 0.26783-0.51562 0.51562-0.51562z" color="#000000" style="-inkscape-stroke:none"/>
 </g>
 <g stroke-linecap="round" stroke-linejoin="round">
  <path d="m50 0.5a3.0938 3.0938 0 0 0-3.0938 3.0938v10.312a3.0938 3.0938 0 0 0 3.0938 3.0938 3.0938 3.0938 0 0 0 3.0938-3.0938v-10.312a3.0938 3.0938 0 0 0-3.0938-3.0938z" color="#000000" style="-inkscape-stroke:none"/>
  <path d="m50 83a3.0938 3.0938 0 0 0-3.0938 3.0938v10.312a3.0938 3.0938 0 0 0 3.0938 3.0938 3.0938 3.0938 0 0 0 3.0938-3.0938v-10.312a3.0938 3.0938 0 0 0-3.0938-3.0938z" color="#000000" style="-inkscape-stroke:none"/>
  <path d="m27.598 6.8242a3.0938 3.0938 0 0 0-2.3477 0.30859 3.0938 3.0938 0 0 0-1.1328 4.2266l5.1562 8.9297a3.0938 3.0938 0 0 0 4.2266 1.1328 3.0938 3.0938 0 0 0 1.1328-4.2266l-5.1562-8.9297a3.0938 3.0938 0 0 0-1.8789-1.4414z" color="#000000" style="-inkscape-stroke:none"/>
  <path d="m68.848 78.27a3.0938 3.0938 0 0 0-2.3477 0.30859 3.0938 3.0938 0 0 0-1.1328 4.2266l5.1562 8.9297a3.0938 3.0938 0 0 0 4.2266 1.1328 3.0938 3.0938 0 0 0 1.1328-4.2266l-5.1562-8.9297a3.0938 3.0938 0 0 0-1.8789-1.4414z" color="#000000" style="-inkscape-stroke:none"/>
  <path d="m11.359 24.117a3.0938 3.0938 0 0 0-4.2266 1.1328 3.0938 3.0938 0 0 0 1.1328 4.2266l8.9297 5.1562a3.0938 3.0938 0 0 0 4.2266-1.1328 3.0938 3.0938 0 0 0-1.1328-4.2266z" color="#000000" style="-inkscape-stroke:none"/>
  <path d="m80.459 65.059a3.0938 3.0938 0 0 0-1.8789 1.4414 3.0938 3.0938 0 0 0 1.1328 4.2266l8.9297 5.1562a3.0938 3.0938 0 0 0 4.2266-1.1328 3.0938 3.0938 0 0 0-1.1328-4.2266l-8.9297-5.1562a3.0938 3.0938 0 0 0-2.3477-0.30859z" color="#000000" style="-inkscape-stroke:none"/>
  <path d="m3.5938 46.906a3.0938 3.0938 0 0 0-3.0938 3.0938 3.0938 3.0938 0 0 0 3.0938 3.0938h10.312a3.0938 3.0938 0 0 0 3.0938-3.0938 3.0938 3.0938 0 0 0-3.0938-3.0938z" color="#000000" style="-inkscape-stroke:none"/>
  <path d="m86.094 46.906a3.0938 3.0938 0 0 0-3.0938 3.0938 3.0938 3.0938 0 0 0 3.0938 3.0938h10.312a3.0938 3.0938 0 0 0 3.0938-3.0938 3.0938 3.0938 0 0 0-3.0938-3.0938z" color="#000000" style="-inkscape-stroke:none"/>
  <path d="m17.195 65.367-8.9297 5.1562a3.0938 3.0938 0 0 0-1.1328 4.2266 3.0938 3.0938 0 0 0 4.2266 1.1328l8.9297-5.1562a3.0938 3.0938 0 0 0 1.1328-4.2266 3.0938 3.0938 0 0 0-4.2266-1.1328z" color="#000000" style="-inkscape-stroke:none"/>
  <path d="m90.99 23.809a3.0938 3.0938 0 0 0-2.3477 0.30859l-8.9297 5.1562a3.0938 3.0938 0 0 0-1.1328 4.2266 3.0938 3.0938 0 0 0 4.2266 1.1328l8.9297-5.1562a3.0938 3.0938 0 0 0 1.1328-4.2266 3.0938 3.0938 0 0 0-1.8789-1.4414z" color="#000000" style="-inkscape-stroke:none"/>
  <path d="m33.5 78.578a3.0938 3.0938 0 0 0-4.2266 1.1328l-5.1562 8.9316a3.0938 3.0938 0 0 0 1.1328 4.2246 3.0938 3.0938 0 0 0 4.2266-1.1328l5.1562-8.9297a3.0938 3.0938 0 0 0-1.1328-4.2266z" color="#000000" style="-inkscape-stroke:none"/>
  <path d="m72.402 6.8242a3.0938 3.0938 0 0 0-1.8789 1.4414l-5.1562 8.9316a3.0938 3.0938 0 0 0 1.1328 4.2246 3.0938 3.0938 0 0 0 4.2266-1.1309l5.1562-8.9316a3.0938 3.0938 0 0 0-1.1328-4.2266 3.0938 3.0938 0 0 0-2.3477-0.30859z" color="#000000" style="-inkscape-stroke:none"/>
 </g>
 <g stroke-linecap="round" stroke-linejoin="round">
  <path d="m50 62.891c0-2.8477-2.3086-5.1562-5.1562-5.1562s-5.1562 2.3086-5.1562 5.1562 2.3086 5.1562 5.1562 5.1562 5.1562-2.3086 5.1562-5.1562z" color="#000000" stroke-width="6.1875" style="-inkscape-stroke:none"/>
  <path d="m44.844 54.641c-4.5197 0-8.25 3.7303-8.25 8.25s3.7303 8.25 8.25 8.25 8.25-3.7303 8.25-8.25-3.7303-8.25-8.25-8.25zm0 6.1875c1.1757 0 2.0625 0.88683 2.0625 2.0625s-0.88683 2.0625-2.0625 2.0625-2.0625-0.88683-2.0625-2.0625 0.88683-2.0625 2.0625-2.0625z" color="#000000" style="-inkscape-stroke:none"/>
 </g>
 <path d="m60.312 31.438c-5.9436 0-10.828 4.8846-10.828 10.828s4.8846 10.828 10.828 10.828 10.828-4.8846 10.828-10.828-4.8846-10.828-10.828-10.828zm0 6.1875c2.5997 0 4.6406 2.0409 4.6406 4.6406s-2.0409 4.6406-4.6406 4.6406-4.6406-2.0409-4.6406-4.6406 2.0409-4.6406 4.6406-4.6406z" color="#000000" stroke-linecap="round" stroke-linejoin="round" style="-inkscape-stroke:none"/>
</svg>
