<?xml version="1.0" encoding="UTF-8"?>
<svg width="100" height="100" fill="none" version="1.1" viewBox="0 0 100 100" xmlns="http://www.w3.org/2000/svg">
 <g fill="#000" stroke-linecap="round" stroke-linejoin="round">
  <path d="m4.4102 33.066a3.9079 3.9079 0 0 0-3.9082 3.9082v26.053a3.9079 3.9079 0 0 0 3.9082 3.9082 3.9079 3.9079 0 0 0 3.9063-3.9082v-26.053a3.9079 3.9079 0 0 0-3.9063-3.9082z" color="#000000" style="-inkscape-stroke:none"/>
  <path d="m27.205 0.5a3.9079 3.9079 0 0 0-3.9082 3.9082v91.186a3.9079 3.9079 0 0 0 3.9082 3.9082 3.9079 3.9079 0 0 0 3.9082-3.9082v-91.186a3.9079 3.9079 0 0 0-3.9082-3.9082z" color="#000000" style="-inkscape-stroke:none"/>
  <path d="m50.002 13.527a3.9079 3.9079 0 0 0-3.9082 3.9082v65.133a3.9079 3.9079 0 0 0 3.9082 3.9062 3.9079 3.9079 0 0 0 3.9082-3.9062v-65.133a3.9079 3.9079 0 0 0-3.9082-3.9082z" color="#000000" style="-inkscape-stroke:none"/>
  <path d="m72.799 0.5a3.9079 3.9079 0 0 0-3.9082 3.9082v91.186a3.9079 3.9079 0 0 0 3.9082 3.9082 3.9079 3.9079 0 0 0 3.9082-3.9082v-91.186a3.9079 3.9079 0 0 0-3.9082-3.9082z" color="#000000" style="-inkscape-stroke:none"/>
  <path d="m95.596 33.066a3.9079 3.9079 0 0 0-3.9082 3.9082v26.053a3.9079 3.9079 0 0 0 3.9082 3.9082 3.9079 3.9079 0 0 0 3.9062-3.9082v-26.053a3.9079 3.9079 0 0 0-3.9062-3.9082z" color="#000000" style="-inkscape-stroke:none"/>
 </g>
</svg>
