<?xml version="1.0" encoding="UTF-8"?>
<svg width="100" height="100" fill="none" version="1.1" viewBox="0 0 100 100" xmlns="http://www.w3.org/2000/svg">
 <g fill="#000" stroke-linecap="round" stroke-linejoin="round">
  <path d="m43.6 47.439c-9.6323 0-17.496 7.8638-17.496 17.496v10.668c0 3.7405 3.0877 6.8281 6.8281 6.8281h34.137c3.7405 0 6.8281-3.0877 6.8281-6.8281v-10.668c0-9.6323-7.8638-17.496-17.496-17.496zm0 5.1211h12.801c6.8649 0 12.375 5.5101 12.375 12.375v10.668c0 0.97297-0.73406 1.707-1.707 1.707h-34.137c-0.97297 0-1.707-0.73406-1.707-1.707v-10.668c0-6.8649 5.5101-12.375 12.375-12.375z" clip-rule="evenodd" color="#000000" fill-rule="evenodd" style="-inkscape-stroke:none"/>
  <path d="m50 17.568c-7.2756 0-13.229 5.9529-13.229 13.229s5.9529 13.229 13.229 13.229 13.229-5.9529 13.229-13.229-5.9529-13.229-13.229-13.229zm0 5.1211c4.5082 0 8.1074 3.5992 8.1074 8.1074s-3.5992 8.1094-8.1074 8.1094-8.1074-3.6012-8.1074-8.1094 3.5992-8.1074 8.1074-8.1074z" color="#000000" style="-inkscape-stroke:none"/>
  <path d="m79.871 47.439a2.5603 2.5603 0 0 0-2.5605 2.5605 2.5603 2.5603 0 0 0 2.5605 2.5605h2.1328c6.8649 0 12.375 5.5101 12.375 12.375v10.668c0 0.97297-0.73406 1.707-1.707 1.707h-8.5332a2.5603 2.5603 0 0 0-2.5605 2.5605 2.5603 2.5603 0 0 0 2.5605 2.5605h8.5332c3.7405 0 6.8281-3.0877 6.8281-6.8281v-10.668c0-9.6323-7.8638-17.496-17.496-17.496z" color="#000000" style="-inkscape-stroke:none"/>
  <path d="m79.871 17.568a2.5603 2.5603 0 0 0-2.5605 2.5605 2.5603 2.5603 0 0 0 2.5605 2.5605c4.5082 0 8.1074 3.5992 8.1074 8.1074s-3.5992 8.1094-8.1074 8.1094a2.5603 2.5603 0 0 0-2.5605 2.5586 2.5603 2.5603 0 0 0 2.5605 2.5605c7.2756 0 13.229-5.9529 13.229-13.229s-5.9529-13.229-13.229-13.229z" color="#000000" style="-inkscape-stroke:none"/>
  <path d="m17.996 47.439c-9.6323 0-17.496 7.8638-17.496 17.496v10.668c0 3.7405 3.0877 6.8281 6.8281 6.8281h8.5332a2.5603 2.5603 0 0 0 2.5605-2.5605 2.5603 2.5603 0 0 0-2.5605-2.5605h-8.5332c-0.97297 0-1.707-0.73406-1.707-1.707v-10.668c0-6.8649 5.5101-12.375 12.375-12.375h2.1328a2.5603 2.5603 0 0 0 2.5605-2.5605 2.5603 2.5603 0 0 0-2.5605-2.5605z" color="#000000" style="-inkscape-stroke:none"/>
  <path d="m20.129 17.568c-7.2756 0-13.229 5.9529-13.229 13.229s5.9529 13.229 13.229 13.229a2.5603 2.5603 0 0 0 2.5605-2.5605 2.5603 2.5603 0 0 0-2.5605-2.5586c-4.5082 0-8.1074-3.6012-8.1074-8.1094s3.5992-8.1074 8.1074-8.1074a2.5603 2.5603 0 0 0 2.5605-2.5605 2.5603 2.5603 0 0 0-2.5605-2.5605z" color="#000000" style="-inkscape-stroke:none"/>
 </g>
</svg>
