<?xml version="1.0" encoding="UTF-8"?>
<svg width="100" height="100" fill="none" version="1.1" viewBox="0 0 100 100" xmlns="http://www.w3.org/2000/svg">
 <g fill="#000" stroke-linecap="round" stroke-linejoin="round">
  <path d="m49.998 35.033c-8.224 0-14.965 6.7409-14.965 14.965s6.7409 14.965 14.965 14.965 14.967-6.7409 14.967-14.965-6.7428-14.965-14.967-14.965zm0 6.9082c4.4911 0 8.0586 3.5655 8.0586 8.0566 0 4.4911-3.5674 8.0586-8.0586 8.0586-4.4911 0-8.0566-3.5674-8.0566-8.0586 0-4.4911 3.5655-8.0566 8.0566-8.0566z" color="#000000" style="-inkscape-stroke:none"/>
  <path d="m49.998 0.5c-6.6346 0-12.086 5.4513-12.086 12.086 0 6.6346 5.4513 12.088 12.086 12.088s12.088-5.4533 12.088-12.088c0-6.6346-5.4533-12.086-12.088-12.086zm0 6.9062c2.902 0 5.1816 2.2777 5.1816 5.1797 0 2.902-2.2797 5.1797-5.1816 5.1797-2.902 0-5.1797-2.2777-5.1797-5.1797 0-2.902 2.2777-5.1797 5.1797-5.1797z" color="#000000" style="-inkscape-stroke:none"/>
  <path d="m49.998 75.324c-6.6346 0-12.086 5.4513-12.086 12.086s5.4513 12.088 12.086 12.088 12.088-5.4533 12.088-12.088-5.4533-12.086-12.088-12.086zm0 6.9062c2.902 0 5.1816 2.2777 5.1816 5.1797 0 2.902-2.2797 5.1816-5.1816 5.1816-2.902 0-5.1797-2.2797-5.1797-5.1816 0-2.902 2.2777-5.1797 5.1797-5.1797z" color="#000000" style="-inkscape-stroke:none"/>
  <path d="m17.213 17.766c-6.6346 0-12.088 5.4533-12.088 12.088 0 6.6346 5.4533 12.088 12.088 12.088 6.6345 0 12.086-5.4532 12.086-12.088 0-6.6347-5.4515-12.088-12.086-12.088zm0 6.9082c2.9017 0 5.1797 2.2778 5.1797 5.1797 0 2.9019-2.278 5.1797-5.1797 5.1797-2.902 0-5.1816-2.2777-5.1816-5.1797 0-2.902 2.2797-5.1797 5.1816-5.1797z" color="#000000" style="-inkscape-stroke:none"/>
  <path d="m82.783 58.057c-6.6345 0-12.086 5.4532-12.086 12.088 0 6.6347 5.4515 12.086 12.086 12.086 6.6346 0 12.088-5.4513 12.088-12.086s-5.4533-12.088-12.088-12.088zm0 6.9062c2.902 0 5.1816 2.2797 5.1816 5.1816 0 2.902-2.2797 5.1797-5.1816 5.1797-2.9017 0-5.1797-2.2778-5.1797-5.1797s2.278-5.1816 5.1797-5.1816z" color="#000000" style="-inkscape-stroke:none"/>
  <path d="m17.213 58.057c-6.6346 0-12.088 5.4533-12.088 12.088s5.4533 12.086 12.088 12.086c6.6345 0 12.086-5.4512 12.086-12.086 0-6.6347-5.4515-12.088-12.086-12.088zm0 6.9062c2.9017 0 5.1797 2.2798 5.1797 5.1816s-2.278 5.1797-5.1797 5.1797c-2.902 0-5.1816-2.2777-5.1816-5.1797 0-2.902 2.2797-5.1816 5.1816-5.1816z" color="#000000" style="-inkscape-stroke:none"/>
  <path d="m82.783 17.766c-6.6345 0-12.086 5.4532-12.086 12.088 0 6.6347 5.4515 12.088 12.086 12.088 6.6346 0 12.088-5.4533 12.088-12.088s-5.4533-12.088-12.088-12.088zm0 6.9082c2.902 0 5.1816 2.2777 5.1816 5.1797 0 2.902-2.2797 5.1797-5.1816 5.1797-2.9017 0-5.1797-2.2778-5.1797-5.1797 0-2.9019 2.278-5.1797 5.1797-5.1797z" color="#000000" style="-inkscape-stroke:none"/>
 </g>
</svg>
