<?xml version="1.0" encoding="UTF-8"?>
<svg width="100" height="100" version="1.1" viewBox="0 0 100 100" xmlns="http://www.w3.org/2000/svg">
 <g stroke-linecap="round" stroke-linejoin="round">
  <path d="m96.32 6.3287c0-1.462-1.185-2.647-2.647-2.647s-2.647 1.185-2.647 2.647 1.185 2.647 2.647 2.647 2.647-1.185 2.647-2.647z" color="#000000" stroke-width="6.3528" style="-inkscape-stroke:none"/>
  <path d="m93.674 0.50586c-3.1784 1e-8 -5.8242 2.6439-5.8242 5.8223s2.6458 5.8242 5.8242 5.8242 5.8223-2.6458 5.8223-5.8242-2.6439-5.8223-5.8223-5.8223zm0 5.293c0.25442 0 0.5293 0.27488 0.5293 0.5293s-0.27488 0.5293-0.5293 0.5293-0.5293-0.27488-0.5293-0.5293 0.27488-0.5293 0.5293-0.5293z" color="#000000" style="-inkscape-stroke:none"/>
 </g>
 <g stroke-linecap="round" stroke-linejoin="round">
  <path d="m75.144 11.623c0-1.462-1.185-2.647-2.647-2.647s-2.647 1.185-2.647 2.647 1.185 2.647 2.647 2.647 2.647-1.185 2.647-2.647z" color="#000000" stroke-width="6.3528" style="-inkscape-stroke:none"/>
  <path d="m72.496 5.7988c-3.1784 0-5.8223 2.6458-5.8223 5.8242 0 3.1784 2.6439 5.8223 5.8223 5.8223s5.8242-2.6439 5.8242-5.8223c0-3.1784-2.6458-5.8242-5.8242-5.8242zm0 5.2949c0.25442 0 0.53125 0.27488 0.53125 0.5293s-0.27683 0.5293-0.53125 0.5293c-0.25442 0-0.5293-0.27488-0.5293-0.5293s0.27488-0.5293 0.5293-0.5293z" color="#000000" style="-inkscape-stroke:none"/>
 </g>
 <path d="m43.381 13.729c-11.785 0-21.395 9.5002-21.658 21.225-11.724 0.26346-21.225 9.8708-21.225 21.656 0 11.785 9.5002 21.393 21.225 21.656 0.26345 11.724 9.8728 21.225 21.658 21.225 11.785 0 21.393-9.5002 21.656-21.225 11.724-0.26345 21.225-9.8708 21.225-21.656 0-11.785-9.5002-21.393-21.225-21.656-0.26345-11.724-9.8708-21.225-21.656-21.225zm0 6.3516c8.5166 0 15.352 6.8369 15.352 15.354 0 0.70826-0.04948 1.5472-0.15039 2.4766a3.1767 3.1767 0 0 0 3.5156 3.5c0.89461-0.10106 1.7259-0.1543 2.459-0.1543 8.5166 0 15.352 6.8369 15.352 15.354s-6.8349 15.352-15.352 15.352c-0.73575 0-1.5626-0.05161-2.4492-0.1582a3.1767 3.1767 0 0 0-3.5332 3.5293c0.10595 0.89013 0.1582 1.7174 0.1582 2.4531 0 8.5166-6.8349 15.352-15.352 15.352-8.5166 0-15.354-6.8349-15.354-15.352 0-0.73575 0.05161-1.5626 0.1582-2.4492a3.1767 3.1767 0 0 0-3.5293-3.5332c-0.89013 0.10595-1.7174 0.1582-2.4531 0.1582-8.5166 0-15.352-6.8349-15.352-15.352s6.8349-15.354 15.352-15.354c0.73305 0 1.5566 0.05239 2.4395 0.1582a3.1767 3.1767 0 0 0 3.5352-3.498c-0.10225-0.93569-0.15039-1.7741-0.15039-2.4824 0-8.5166 6.8369-15.354 15.354-15.354z" clip-rule="evenodd" color="#000000" fill-rule="evenodd" stroke-linecap="round" stroke-linejoin="round" style="-inkscape-stroke:none"/>
 <g stroke-linecap="round" stroke-linejoin="round">
  <path d="m91.026 27.556c0-1.4618-1.185-2.647-2.647-2.647s-2.647 1.1852-2.647 2.647c0 1.462 1.185 2.647 2.647 2.647s2.647-1.185 2.647-2.647z" color="#000000" stroke-width="6.3528" style="-inkscape-stroke:none"/>
  <path d="m88.379 21.732c-3.1787 0-5.8242 2.6438-5.8242 5.8223 0 3.1784 2.6458 5.8242 5.8242 5.8242s5.8242-2.6458 5.8242-5.8242c0-3.1784-2.6455-5.8223-5.8242-5.8223zm0 5.293c0.25442 0 0.5293 0.27488 0.5293 0.5293 0 0.25488-0.27457 0.5293-0.5293 0.5293s-0.5293-0.27442-0.5293-0.5293c0-0.25442 0.27488-0.5293 0.5293-0.5293z" color="#000000" style="-inkscape-stroke:none"/>
 </g>
 <path d="m22.203 74.609a3.1764 3.1764 0 0 0-2.2461 0.92969l-15.881 15.883a3.1764 3.1764 0 0 0 0 4.4902 3.1764 3.1764 0 0 0 4.4922 0l15.881-15.881a3.1764 3.1764 0 0 0 0-4.4922 3.1764 3.1764 0 0 0-2.2461-0.92969z" color="#000000" stroke-linecap="round" stroke-linejoin="round" style="-inkscape-stroke:none"/>
 <path d="m43.381 42.051c-7.9934 0-14.559 6.5652-14.559 14.559s6.5652 14.559 14.559 14.559c7.9934 0 14.559-6.5652 14.559-14.559s-6.5652-14.559-14.559-14.559zm0 7.9414c3.7017 0 6.6172 2.9155 6.6172 6.6172s-2.9155 6.6172-6.6172 6.6172-6.6191-2.9155-6.6191-6.6172 2.9175-6.6172 6.6191-6.6172z" color="#000000" stroke-linecap="round" stroke-linejoin="round" style="-inkscape-stroke:none"/>
</svg>
