<?xml version="1.0" encoding="UTF-8"?>
<svg width="100" height="100" version="1.1" viewBox="0 0 100 100" xmlns="http://www.w3.org/2000/svg">
 <path d="m27.84 3.4727a3.4538 3.4538 0 0 0-2.6523 0.38477l-1.3613 0.82031a3.4538 3.4538 0 0 0-0.05273 0.033203c-14.014 8.7966-23.273 24.711-23.273 42.395a3.4538 3.4538 0 0 0 3.4531 3.4531h28.779a3.4538 3.4538 0 0 0 3.4531-3.4531c0-5.1622 2.8044-9.6181 6.9609-11.998a3.4538 3.4538 0 0 0 1.2832-4.7109l-14.461-25.295a3.4538 3.4538 0 0 0-2.1289-1.6289zm44.287 0.00977a3.4538 3.4538 0 0 0-2.0996 1.6191l-14.455 25.299a3.4538 3.4538 0 0 0 1.2812 4.709c4.154 2.3807 6.959 6.8357 6.959 11.996a3.4538 3.4538 0 0 0 3.4531 3.4531h28.777a3.4538 3.4538 0 0 0 3.4531-3.5156l-0.0293-1.6992a3.4538 3.4538 0 0 0-2e-3 -0.0625c-0.63521-17.559-10.37-33.158-24.709-41.455a3.4538 3.4538 0 0 0-2.6289-0.34375zm2.0645 8.2578c10.166 7.1033 17.124 18.771 18.18 31.912h-22.121c-0.85497-4.9962-3.4317-9.3315-7.1914-12.43zm-48.383 2e-3 11.135 19.477c-3.7622 3.0984-6.3419 7.4354-7.1973 12.434h-22.113c1.0572-13.145 8.0083-24.808 18.176-31.91zm14.723 47.029a3.4538 3.4538 0 0 0-2.0918 1.6172l-14.455 25.293a3.4538 3.4538 0 0 0 1.3457 4.7461l1.6309 0.89062a3.4538 3.4538 0 0 0 0.07031 0.03711c7.1543 3.6896 15.065 5.271 22.975 5.2793a3.4538 3.4538 0 0 0 0.05664 0l1.8066-0.02734a3.4538 3.4538 0 0 0 0.05469-2e-3c7.6869-0.2403 15.556-2.0214 22.826-6.2187a3.4538 3.4538 0 0 0 1.2715-4.7031l-14.455-25.297 0.45508 1.7109a3.4538 3.4538 0 0 0-5.1699-2.9941c-2.0194 1.1563-4.3439 1.8145-6.8516 1.8145-2.506 0-4.8294-0.65784-6.8477-1.8125a3.4538 3.4538 0 0 0-2.6211-0.33398zm16.531 7.6543 11.139 19.492c-5.2597 2.4217-10.823 3.6047-16.477 3.7832l-1.7109 0.02734c-0.0039-4e-6 -0.0078 5e-6 -0.01172 0-6.3854-0.0081-12.577-1.2458-18.195-3.8145l11.135-19.484c2.2264 0.81505 4.5626 1.3965 7.0586 1.3965 2.4976 0 4.8348-0.58433 7.0625-1.4004z" clip-rule="evenodd" color="#000000" fill-rule="evenodd" stroke-linejoin="round" style="-inkscape-stroke:none"/>
 <g stroke-linecap="round" stroke-linejoin="round">
  <path d="m52.877 47.106c0-1.5895-1.2884-2.8779-2.8779-2.8779s-2.8779 1.2884-2.8779 2.8779 1.2884 2.8779 2.8779 2.8779 2.8779-1.2884 2.8779-2.8779z" color="#000000" stroke-width="6.9069" style="-inkscape-stroke:none"/>
  <path d="m49.998 40.775c-3.4556 0-6.3301 2.8745-6.3301 6.3301s2.8745 6.332 6.3301 6.332 6.332-2.8764 6.332-6.332-2.8764-6.3301-6.332-6.3301zm0 5.7559c0.27661 0 0.57617 0.29761 0.57617 0.57422 0 0.27661-0.29956 0.57617-0.57617 0.57617s-0.57422-0.29956-0.57422-0.57617c0-0.27661 0.29761-0.57422 0.57422-0.57422z" color="#000000" style="-inkscape-stroke:none"/>
 </g>
</svg>
