<?xml version="1.0" encoding="UTF-8"?>
<svg width="100" height="100" version="1.1" viewBox="0 0 100 100" xmlns="http://www.w3.org/2000/svg">
 <g stroke-linecap="round" stroke-linejoin="round">
  <path d="m49.998 0.49805c-8.224-1e-8 -14.965 6.7409-14.965 14.965l-0.0039 42.389c-5.2103 4.3309-8.6289 10.765-8.6289 18.047 0 12.992 10.605 23.6 23.598 23.6s23.6-10.607 23.6-23.6c0-7.2846-3.4208-13.722-8.6348-18.053l2e-3 -42.381c-5.3e-5 -8.222-6.7397-14.962-14.961-14.965a3.4538 3.4538 0 0 0-0.0059-0.001953zm0 6.9082c4.4911 0 8.0586 3.5674 8.0586 8.0586v43.9a3.4538 3.4538 0 0 0 1.4785 2.832c4.3269 3.0179 7.1562 8.0037 7.1562 13.701 0 9.2595-7.4339 16.693-16.693 16.693s-16.691-7.4339-16.691-16.693c0-5.6954 2.8282-10.679 7.1523-13.697a3.4538 3.4538 0 0 0 1.4766-2.832l0.0059-43.904a3.4538 3.4538 0 0 0 0-2e-3c0-4.4911 3.5655-8.0566 8.0566-8.0566z" clip-rule="evenodd" color="#000000" fill-rule="evenodd" style="-inkscape-stroke:none"/>
  <path d="m52.877 17.766a3.4534 3.4534 0 0 0-3.4531 3.4551 3.4534 3.4534 0 0 0 3.4531 3.4531h8.5879a3.4534 3.4534 0 0 0 3.4531-3.4531 3.4534 3.4534 0 0 0-3.4531-3.4551z" color="#000000" style="-inkscape-stroke:none"/>
  <path d="m52.877 35.033a3.4534 3.4534 0 0 0-3.4531 3.4531 3.4534 3.4534 0 0 0 3.4531 3.4551h8.5879a3.4534 3.4534 0 0 0 3.4531-3.4551 3.4534 3.4534 0 0 0-3.4531-3.4531z" color="#000000" style="-inkscape-stroke:none"/>
 </g>
 <g stroke-linecap="round" stroke-linejoin="round">
  <path d="m55.755 75.9c0-3.1788-2.577-5.7558-5.7558-5.7558s-5.7558 2.577-5.7558 5.7558 2.577 5.7558 5.7558 5.7558 5.7558-2.577 5.7558-5.7558z" color="#000000" stroke-width="6.9069" style="-inkscape-stroke:none"/>
  <path d="m49.998 66.689c-5.0452 0-9.209 4.1657-9.209 9.2109 0 5.0452 4.1638 9.209 9.209 9.209s9.2109-4.1638 9.2109-9.209c0-5.0452-4.1657-9.2109-9.2109-9.2109zm0 6.9082c1.3124 0 2.3027 0.99037 2.3027 2.3027 0 1.3124-0.99037 2.3008-2.3027 2.3008-1.3124 0-2.3008-0.98842-2.3008-2.3008 0-1.3124 0.98841-2.3027 2.3008-2.3027z" color="#000000" style="-inkscape-stroke:none"/>
 </g>
</svg>
