<?xml version="1.0" encoding="UTF-8"?>
<svg width="100" height="100" fill="none" version="1.1" viewBox="0 0 100 100" xmlns="http://www.w3.org/2000/svg">
 <g fill="#000" stroke-linecap="round" stroke-linejoin="round">
  <path d="m37.109 63.279c-4.5306 0-9.0612 1.7194-12.5 5.1582-4.5131 4.5133-11.737 4.5133-16.25 0a3.0938 3.0938 0 0 0-4.375 0 3.0938 3.0938 0 0 0 0 4.375c6.8777 6.8779 18.122 6.8779 25 0 4.5131-4.5131 11.737-4.5131 16.25 0a3.0938 3.0938 0 0 0 4.375 0 3.0938 3.0938 0 0 0 0-4.375c-3.4388-3.4388-7.9694-5.1582-12.5-5.1582z" color="#000000" style="-inkscape-stroke:none"/>
  <path d="m37.109 42.654c-4.5306 0-9.0612 1.7194-12.5 5.1582-4.5131 4.5133-11.737 4.5133-16.25 0a3.0938 3.0938 0 0 0-4.375 0 3.0938 3.0938 0 0 0 0 4.375c6.8777 6.8779 18.122 6.8779 25 0 4.5131-4.5131 11.737-4.5131 16.25 0a3.0938 3.0938 0 0 0 4.375 0 3.0938 3.0938 0 0 0 0-4.375c-3.4388-3.4388-7.9694-5.1582-12.5-5.1582z" color="#000000" style="-inkscape-stroke:none"/>
  <path d="m37.109 22.029c-4.5306 0-9.0612 1.7194-12.5 5.1582-4.5131 4.5133-11.737 4.5133-16.25 0a3.0938 3.0938 0 0 0-4.375 0 3.0938 3.0938 0 0 0 0 4.375c6.8777 6.8779 18.122 6.8779 25 0 4.5131-4.5131 11.737-4.5131 16.25 0a3.0938 3.0938 0 0 0 4.375 0 3.0938 3.0938 0 0 0 0-4.375c-3.4388-3.4388-7.9694-5.1582-12.5-5.1582z" color="#000000" style="-inkscape-stroke:none"/>
  <path d="m47.422 10.812a3.0938 3.0938 0 0 0-3.0938 3.0938 3.0938 3.0938 0 0 0 3.0938 3.0938c18.262 0 33 14.738 33 33 0 18.262-14.738 33-33 33a3.0938 3.0938 0 0 0-3.0938 3.0938 3.0938 3.0938 0 0 0 3.0938 3.0938c21.606 0 39.188-17.581 39.188-39.188s-17.581-39.188-39.188-39.188z" color="#000000" style="-inkscape-stroke:none"/>
  <path d="m47.422 0.5a3.0938 3.0938 0 0 0-3.0938 3.0938v10.312a3.0938 3.0938 0 0 0 3.0938 3.0938 3.0938 3.0938 0 0 0 3.0938-3.0938v-10.312a3.0938 3.0938 0 0 0-3.0938-3.0938z" color="#000000" style="-inkscape-stroke:none"/>
  <path d="m47.422 83a3.0938 3.0938 0 0 0-3.0938 3.0938v10.312a3.0938 3.0938 0 0 0 3.0938 3.0938 3.0938 3.0938 0 0 0 3.0938-3.0938v-10.312a3.0938 3.0938 0 0 0-3.0938-3.0938z" color="#000000" style="-inkscape-stroke:none"/>
  <path d="m66.27 78.27a3.0938 3.0938 0 0 0-2.3477 0.30859 3.0938 3.0938 0 0 0-1.1328 4.2266l5.1562 8.9297a3.0938 3.0938 0 0 0 4.2266 1.1328 3.0938 3.0938 0 0 0 1.1328-4.2266l-5.1562-8.9297a3.0938 3.0938 0 0 0-1.8789-1.4414z" color="#000000" style="-inkscape-stroke:none"/>
  <path d="m77.881 65.059a3.0938 3.0938 0 0 0-1.8789 1.4414 3.0938 3.0938 0 0 0 1.1328 4.2266l8.9297 5.1562a3.0938 3.0938 0 0 0 4.2266-1.1328 3.0938 3.0938 0 0 0-1.1328-4.2266l-8.9297-5.1562a3.0938 3.0938 0 0 0-2.3477-0.30859z" color="#000000" style="-inkscape-stroke:none"/>
  <path d="m83.516 46.906a3.0938 3.0938 0 0 0-3.0938 3.0938 3.0938 3.0938 0 0 0 3.0938 3.0938h10.312a3.0938 3.0938 0 0 0 3.0938-3.0938 3.0938 3.0938 0 0 0-3.0938-3.0938z" color="#000000" style="-inkscape-stroke:none"/>
  <path d="m88.412 23.809a3.0938 3.0938 0 0 0-2.3477 0.30859l-8.9297 5.1562a3.0938 3.0938 0 0 0-1.1328 4.2266 3.0938 3.0938 0 0 0 4.2266 1.1328l8.9297-5.1562a3.0938 3.0938 0 0 0 1.1328-4.2266 3.0938 3.0938 0 0 0-1.8789-1.4414z" color="#000000" style="-inkscape-stroke:none"/>
  <path d="m72.172 7.1328a3.0938 3.0938 0 0 0-4.2266 1.1328l-5.1562 8.9316a3.0938 3.0938 0 0 0 1.1328 4.2246 3.0938 3.0938 0 0 0 4.2266-1.1309l5.1562-8.9316a3.0938 3.0938 0 0 0-1.1328-4.2266z" color="#000000" style="-inkscape-stroke:none"/>
 </g>
</svg>
