<?xml version="1.0" encoding="UTF-8"?>
<svg width="100" height="100" version="1.1" viewBox="0 0 100 100" xmlns="http://www.w3.org/2000/svg">
 <path d="m9.709 58.057a3.4534 3.4534 0 0 0-3.4531 3.4531 3.4534 3.4534 0 0 0 3.4531 3.4531h63.312c7.6699 0 13.814 6.1445 13.814 13.814 0 7.6699-6.1445 13.814-13.814 13.814-7.6699 0-13.812-6.1445-13.812-13.814a3.4534 3.4534 0 0 0-3.4551-3.4531 3.4534 3.4534 0 0 0-3.4531 3.4531c0 11.403 9.3179 20.721 20.721 20.721 11.403 0 20.721-9.3179 20.721-20.721 0-11.403-9.3179-20.721-20.721-20.721z" color="#000000" stroke-linecap="round" stroke-linejoin="round" style="-inkscape-stroke:none"/>
 <path d="m73.021 0.5c-11.403 0-20.721 9.3179-20.721 20.721a3.4534 3.4534 0 0 0 3.4531 3.4531 3.4534 3.4534 0 0 0 3.4551-3.4531c0-7.6699 6.1426-13.814 13.812-13.814 7.6699 0 13.814 6.1445 13.814 13.814 0 7.6699-6.1445 13.812-13.814 13.812h-63.312a3.4534 3.4534 0 0 0-3.4531 3.4531 3.4534 3.4534 0 0 0 3.4531 3.4551h63.312c11.403 0 20.721-9.3179 20.721-20.721 1e-6 -11.403-9.3179-20.721-20.721-20.721z" color="#000000" stroke-linecap="round" stroke-linejoin="round" style="-inkscape-stroke:none"/>
</svg>
